<?xml version="1.0" encoding="UTF-8" standalone="no"?>
<svg height="208.28534" width="455" xmlns="http://www.w3.org/2000/svg">
   <g fill-rule="evenodd" transform="matrix(.00002781 0 0 .00002781 -8.90192308 -8.90249075)">
      <path d="m15561700 1368970c64750-41200 189760-50190 214540 95650 66210 389880-309250 563260-679420 369110 110340-145190 348590-390820 464880-464760zm-1366010 2439400l-620770 832890c-6770 9450-18120 12250-30630 12250l-711420 330-1176920 1456420c656800-369450 1414430-337770 1971620-224580 558200 113280 1016150 312610 1205920 395050 531960 231170 541460 259750 633460 127920 178660-255990 349110-321960 563170-318100 42190 740 414220 53290 440310 208400 6070 36230 11980 54300-99410 142350-280640 221600-713670 781440-878510 1005640-71300 96960-137630 134200-245970 134200-42030 0-138420-37440-286200-123530-648400-377670-1410040-688280-2170880-699060-609970-8610-2554380 870750-2611480 870750-155430 0-453520-124740-450200-313930 1480-81430 1277330-1758560 2058930-2675010l-659810 110c-16630 0-30100-13480-30100-30110 0-7440 2800-14250 7290-19540l676710-816250c7120-9190 18800-15110 33070-15110l686110-100 1246850-1442590c-533910-395260-1383270-688430-1934440-684730-452730 0-739260 255200-739260 623530-11730 267510 104900 421890 184220 535740 93960 134850 116140 155490 24140 236410-64970 57090-195680 74630-290750 74630-353690 0-605150-318160-605150-779080 0-738240 674810-1504540 1717110-1504540 424320 0 1193040 36880 2183150 641760l33910 20700 23440-31990c798560-1090690 1971430-1014410 2139270-127390 127010 671530-425270 1836000-2005170 1290000l-947330 1147550h641900c16650 0 30110 13620 30110 30260 0 7240-2000 13570-6290 18750z"/>
      <path d="m5801640 5733790c30590 847730 576750 1016780 990710 1006920 765380-9950 1406240-645350 1406240-1290960 0-300890-373710-933450-1068820-923420-166780-7490-625160 149890-723510 172290-10030 2270-23920-3970-25340-14530-13250-97820-44570-513560 679620-752400 265440-87560 989370-118300 1238500-924460 134310-434620-7980-901030-420670-1203280-1859340 2669470-3080990 4353470-4052320 5100160-643900 495020-1484830 707930-1871050 707930-979080 0-1327300-473490-1340500-930230-13620-471850 321800-927750 731110-927750 21290 640270 385340 822020 770580 851110 769350 58100 1792680-875130 2718000-1946170 931380-1078050 1785140-2322000 2216160-2931530 187540-265230-130560-236880-170070-238400-276160-10680-1768870 390290-1805310 1589510-4700 153840 17910 257790 42190 332630 11740 35910 49500 116920 44850 132980-6070 20920-71140 111600-382490 111600-417020 0-556550-331840-556550-682470-9400-1403190 1501570-2181560 2859390-2200850 1401280-19160 2297370 601780 2306770 1698420 12580 473070-25510 910960-1102710 1601980 376260 115190 1186160 480080 1016320 1437090-262600 1479450-1550440 2109680-2606940 2110690-831880 840-1499940-371180-1647450-1020970-101520-447380 441110-891670 753290-865890zm4272240-1990020c279660 0 506380 226700 506380 506400 0 279650-226720 506340-506380 506340-279660 0-506380-226690-506380-506340 0-279700 226720-506400 506380-506400zm5186620 0c279700 0 506380 226700 506380 506400 0 279650-226680 506340-506380 506340-279660 0-506400-226690-506400-506340 0-279700 226740-506400 506400-506400z"/>
      <path d="m15145400 3599860c279640 0 506380 226730 506380 506390 0 279710-226740 506390-506380 506390-279660 0-506400-226680-506400-506390 0-279660 226740-506390 506400-506390zm-5186620 0c279660 0 506380 226730 506380 506390 0 279710-226720 506390-506380 506390-279710 0-506380-226680-506380-506390 0-279660 226670-506390 506380-506390zm-4271390 1987950c30570 847720 576730 1016790 990700 1006960 765380-9970 1406250-645390 1406250-1291010 0-300870-373730-933440-1068820-923350-166790-7550-625160 149840-723510 172220-10030 2340-23920-3900-25340-14520-13270-97810-44590-513570 679610-752400 265450-87510 989380-118240 1238500-924470 134320-434610-7970-901020-420660-1203270-1859350 2669510-3081010 4353460-4052320 5100160-643920 495040-1484830 707930-1871070 707930-979080 0-1327280-473480-1340480-930230-13620-471850 321790-927690 731110-927690 21280 640230 385330 821960 770570 851060 769400 58150 1792680-875150 2718000-1946180 931380-1078050 1785140-2321990 2216150-2931480 187550-265290-130560-236920-170050-238460-276170-10660-1768880 390310-1805320 1589510-4700 153910 17900 257790 42200 332630 11720 35920 49480 116940 44840 132990-6080 20920-71140 111600-382480 111600-417040 0-556570-331840-556570-682480-9400-1403180 1501570-2181560 2859390-2200840 1401280-19160 2297390 601780 2306790 1698430 12560 473050-25510 910940-1102720 1601970 376250 115180 1186170 480130 1016310 1437090-262590 1479500-1550420 2109680-2606870 2110740-831950 800-1500000-371190-1647510-1021010-101500-447400 441110-891680 753300-865900z" fill="#dd0124"/>
      <path d="m15446600 1225100c64810-41190 189820-50230 214590 95650 66180 389830-309240 563270-679410 369120 110330-145190 348520-390830 464820-464770zm-1365990 2439400l-620740 832890c-6810 9400-18110 12260-30630 12260l-711470 260-1176880 1456470c656820-369440 1414380-337740 1971640-224620 558150 113340 1016150 312610 1205860 395120 531950 231160 541500 259730 633520 127910 178620-255990 349050-321970 563100-318110 42210 740 414280 53300 440380 208420 6060 36230 11980 54280-99450 142270-280610 221670-713630 781500-878520 1005690-71250 96970-137590 134210-245960 134210-42000 0-138430-37450-286160-123530-648460-377680-1410040-688340-2170940-699060-609910-8660-2554330 870760-2611430 870760-155490 0-453520-124750-450190-313930 1430-81440 1277330-1758580 2058880-2675020l-659820 60c-16590 0-30050-13470-30050-30060 0-7440 2740-14250 7230-19540l676770-816250c7130-9180 18810-15110 33010-15110l686110-150 1246860-1442520c-533900-395270-1383270-688450-1934450-684750-452660 0-739240 255200-739240 623530-11720 267500 104890 421890 184260 535760 93920 134830 116150 155490 24090 236390-64910 57100-195630 74630-290690 74630-353690 0-605210-318150-605210-779070 0-738250 674820-1504530 1717110-1504530 424370 0 1193090 36860 2183210 641750l33850 20700 23500-32000c798560-1090680 1971430-1014420 2139210-127390 127070 671540-425210 1835990-2005160 1290000l-947280 1147550h641900c16590 0 30110 13640 30110 30270 0 7230-2050 13560-6330 18740z" fill="#dd0124"/>
   </g>
</svg>
